<?xml version="1.0" standalone="no"?>
<!DOCTYPE svg PUBLIC "-//W3C//DTD SVG 20010904//EN"
 "http://www.w3.org/TR/2001/REC-SVG-20010904/DTD/svg10.dtd">
<svg version="1.0" xmlns="http://www.w3.org/2000/svg"
 width="300.000000pt" height="300.000000pt" viewBox="0 0 300.000000 300.000000"
 preserveAspectRatio="xMidYMid meet">
<metadata>
Created by potrace 1.14, written by Peter Selinger 2001-2017
</metadata>
<g transform="translate(0.000000,300.000000) scale(0.100000,-0.100000)"
fill="#000000" stroke="none">
<path d="M1703 2540 c-41 -24 -51 -44 -83 -158 l-26 -93 -69 -3 c-120 -6 -265
-79 -340 -170 -63 -77 -86 -143 -95 -272 -6 -99 -12 -123 -38 -177 -17 -35
-52 -83 -77 -106 -64 -60 -47 -75 38 -33 83 41 143 95 201 180 l47 69 -22 42
c-16 32 -20 53 -17 91 5 52 48 130 72 130 7 0 40 -18 74 -39 34 -22 79 -45
102 -51 l40 -11 0 -61 0 -61 71 5 c97 7 172 46 217 112 17 27 36 62 40 80 6
24 14 32 35 34 19 2 27 -1 27 -12 0 -9 7 -16 15 -16 10 0 15 10 15 30 0 28 -3
30 -37 30 l-38 0 -1 75 c0 74 0 75 -42 113 -50 46 -91 132 -63 132 5 0 12 -13
16 -29 3 -16 22 -47 41 -70 l36 -41 82 0 c69 0 88 4 110 21 29 23 59 73 49 83
-10 10 -51 7 -58 -4 -5 -8 -11 -8 -20 0 -10 8 -14 7 -18 -2 -4 -10 -8 -10 -16
2 -10 13 -12 13 -22 0 -8 -12 -12 -12 -16 -2 -4 9 -8 10 -18 2 -10 -8 -15 -8
-20 0 -5 8 -11 8 -20 0 -9 -7 -16 -6 -25 5 -11 13 2 15 114 15 l126 0 0 25 c0
64 -33 88 -184 134 -87 27 -161 27 -203 1z m147 -70 c0 -5 -9 -10 -20 -10 -11
0 -20 5 -20 10 0 6 9 10 20 10 11 0 20 -4 20 -10z m-156 -363 l-27 -32 36 -3
c29 -3 37 -8 37 -23 0 -10 -4 -19 -10 -19 -5 0 -10 6 -10 14 0 10 -13 16 -41
18 l-41 3 38 49 c21 28 40 44 42 38 2 -7 -9 -27 -24 -45z"/>
<path d="M1277 2002 c-35 -39 -48 -121 -26 -165 6 -12 23 -34 37 -49 l25 -27
-32 -26 c-31 -26 -31 -28 -31 -117 0 -124 3 -128 95 -128 65 0 75 2 75 18 0
27 -27 59 -55 66 -30 8 -36 53 -7 62 46 13 89 45 109 80 19 32 23 54 23 126
l0 87 -34 6 c-18 4 -59 24 -91 46 -32 21 -61 39 -65 39 -4 0 -14 -8 -23 -18z"/>
<path d="M1720 1840 c-19 -11 -68 -25 -107 -31 -71 -12 -72 -13 -55 -32 16
-18 16 -20 -11 -41 -26 -21 -27 -25 -27 -122 0 -64 4 -104 12 -112 18 -18 158
-16 158 2 0 20 -37 64 -61 71 -32 11 -22 57 15 66 64 17 121 108 114 181 l-3
36 -35 -18z"/>
<path d="M1121 1250 c-100 -21 -152 -85 -159 -198 -4 -52 0 -71 22 -117 23
-47 35 -58 84 -82 50 -25 68 -28 147 -27 148 1 221 49 246 162 22 105 -23 206
-108 244 -52 23 -167 32 -232 18z m186 -144 c31 -37 31 -95 0 -132 -18 -20
-35 -28 -73 -31 -102 -10 -157 44 -133 132 14 48 49 66 123 62 50 -3 63 -8 83
-31z"/>
<path d="M1677 1250 c-83 -21 -138 -69 -157 -138 -33 -119 16 -230 118 -269
64 -24 190 -24 254 0 168 65 172 325 5 392 -50 20 -167 28 -220 15z m162 -125
c34 -17 41 -33 41 -89 0 -71 -57 -107 -147 -93 -55 9 -83 41 -83 96 1 72 33
100 113 101 26 0 61 -7 76 -15z"/>
<path d="M470 1040 l0 -210 65 0 65 0 0 70 0 70 150 0 150 0 0 55 0 55 -150 0
-150 0 0 30 0 30 155 0 155 0 0 55 0 55 -220 0 -220 0 0 -210z"/>
<path d="M2070 1248 c-1 -2 -2 -97 -3 -211 l-2 -209 155 4 c171 4 211 15 263
77 61 72 56 211 -9 276 -50 50 -112 65 -271 65 -73 0 -133 -1 -133 -2z m276
-132 c24 -20 28 -31 28 -75 0 -71 -23 -93 -104 -99 l-60 -4 0 94 c0 52 3 98 7
101 3 4 28 7 54 7 36 0 55 -6 75 -24z"/>
<path d="M674 565 l0 -145 53 0 53 0 0 55 0 55 85 0 85 0 0 -56 0 -55 51 3 50
3 0 140 0 140 -50 3 -51 3 0 -55 0 -56 -85 0 -85 0 0 55 0 55 -53 0 -53 0 0
-145z"/>
<path d="M1090 613 c0 -162 39 -198 206 -191 148 6 179 39 179 188 l0 95 -57
3 -58 3 0 -95 c0 -84 -2 -97 -19 -106 -28 -14 -106 -13 -119 3 -6 7 -12 53
-14 103 l-3 89 -57 3 -58 3 0 -98z"/>
<path d="M1510 565 l0 -145 61 0 62 0 -6 108 -6 107 54 -107 55 -108 80 0 80
0 0 146 0 145 -52 -3 -53 -3 3 -105 2 -105 -55 108 -55 107 -85 0 -85 0 0
-145z"/>
<path d="M1932 668 l3 -43 68 4 67 3 0 -106 0 -107 58 3 57 3 3 104 3 104 64
-6 65 -6 0 44 0 45 -196 0 -195 0 3 -42z"/>
</g>
</svg>
